<svg xmlns="http://www.w3.org/2000/svg" viewBox="0 0 100 100" role="img" aria-label="C">
  <!-- "C" da fonte Anton (Google Fonts) vetorizado — marca Cook a la Roulette -->
  <g transform="translate(50 50) scale(0.04464 -0.04464) translate(-498.00 -880.00)">
    <path d="M488 -16Q297 -16 180.5 103.0Q64 222 64 436V1248Q64 1504 165.5 1640.0Q267 1776 496 1776Q621 1776 718.5 1730.0Q816 1684 872.0 1592.5Q928 1501 928 1362V1058H578V1318Q578 1397 558.0 1424.5Q538 1452 496 1452Q447 1452 430.0 1416.5Q413 1381 413 1322V441Q413 368 434.5 338.0Q456 308 496 308Q541 308 559.5 345.0Q578 382 578 441V758H932V425Q932 193 815.0 88.5Q698 -16 488 -16Z" fill="#e85d29"/>
  </g>
</svg>
